<svg id="Capa_1" enable-background="new 0 0 469 469" height="512" viewBox="0 0 469 469" width="512" xmlns="http://www.w3.org/2000/svg"><g><path d="m449.5 220.5c0 5.51-4.49 10-10 10s-10-4.49-10-10 4.49-10 10-10 10 4.49 10 10zm-370-170.5c0 5.523-4.477 10-10 10s-10-4.477-10-10 4.477-10 10-10 10 4.477 10 10zm45 0c0 5.523-4.477 10-10 10s-10-4.477-10-10 4.477-10 10-10 10 4.477 10 10zm45 0c0 5.523-4.477 10-10 10s-10-4.477-10-10 4.477-10 10-10 10 4.477 10 10zm280-20v145.5c0 5.51-4.49 10-10 10s-10-4.49-10-10v-75.5h-390v241h62.812l-15.392-15.39c-8.545-8.545-8.546-22.449-.003-30.996l46.67-46.685c1.875-1.876 4.419-2.93 7.072-2.93h188.368c2.676 0 5.241 1.073 7.12 2.979l46.04 46.685c8.428 8.545 8.38 22.402-.108 30.889l-15.448 15.448h62.869v-75.51c0-4.25 2.649-8.138 6.691-9.453 6.9-2.246 13.309 2.88 13.309 9.464v85.499c0 5.523-4.477 10-10 10h-92.872l-105.086 105.072c-1.953 1.952-4.512 2.928-7.071 2.928s-5.118-.976-7.071-2.928l-105.086-105.072h-92.814c-5.523 0-10-4.477-10-10v-321c0-16.542 13.458-30 30-30h370c16.542 0 30 13.458 30 30zm-238.012 391.878-34.096-101.766h-67.684zm147.747-101.766h-67.683l-34.096 101.766zm-79.183-55.112 11.542 35.112h67.877l-34.626-35.112zm-81.473 35.112h71.963l-11.543-35.112h-48.403zm-.095 20 35.987 107.41 35.988-107.41zm-88.783-20h67.739l12.017-35.112h-44.654zm319.799-270.112c0-5.514-4.486-10-10-10h-370c-5.514 0-10 4.486-10 10v50h390zm-205.029 100v85c0 5.523 4.477 10 10 10s10-4.477 10-10v-85c0-5.523-4.477-10-10-10s-10 4.477-10 10zm-87.496 16.139c-4.783 2.761-6.422 8.877-3.66 13.66l34.757 60.201c3.041 4.936 8.654 6.452 13.66 3.66 4.823-2.689 6.422-8.877 3.66-13.66l-34.757-60.201c-2.761-4.783-8.878-6.422-13.66-3.66zm-57.704 67.725c-4.782-2.76-10.899-1.123-13.66 3.66-2.762 4.783-1.123 10.899 3.66 13.66l26.816 15.483c4.703 2.623 10.703 1.341 13.66-3.66 2.811-4.754 1.123-10.899-3.66-13.66zm239.065-64.065-34.757 60.201c-2.762 4.783-1.163 10.971 3.66 13.66 5.006 2.792 10.619 1.275 13.66-3.66l34.757-60.201c2.762-4.783 1.123-10.899-3.66-13.66-4.782-2.762-10.899-1.123-13.66 3.66zm71.364 64.065-26.816 15.483c-4.783 2.761-6.471 8.906-3.66 13.66 2.957 5.001 8.957 6.283 13.66 3.66l26.816-15.483c4.783-2.761 6.422-8.877 3.66-13.66-2.761-4.782-8.878-6.42-13.66-3.66z"/></g></svg>